<svg xmlns="http://www.w3.org/2000/svg" xmlns:xlink="http://www.w3.org/1999/xlink" width="500" zoomAndPan="magnify" viewBox="0 0 375 374.999991" height="500" preserveAspectRatio="xMidYMid meet" version="1.0"><defs><filter x="0%" y="0%" width="100%" height="100%" id="b87426e8d3"><feColorMatrix values="0 0 0 0 1 0 0 0 0 1 0 0 0 0 1 0 0 0 1 0" color-interpolation-filters="sRGB"/></filter><g/><mask id="dd95e7327c"><g filter="url(#b87426e8d3)"><rect x="-37.5" width="450" fill="#000000" y="-37.499999" height="449.999989" fill-opacity="0.77"/></g></mask><clipPath id="7980cd4871"><rect x="0" width="82" y="0" height="26"/></clipPath></defs><g fill="#f5e9dc" fill-opacity="0.4"><g transform="translate(85.221305, 204.092316)"><g><path d="M 21.5625 -5.625 C 21.570312 -4.425781 21.976562 -3.257812 22.78125 -2.125 C 23.59375 -0.988281 24.566406 -0.328125 25.703125 -0.140625 L 19.5 -0.109375 L 2.5 -0.015625 C 3.632812 -0.210938 4.597656 -0.878906 5.390625 -2.015625 C 6.179688 -3.160156 6.570312 -4.332031 6.5625 -5.53125 L 6.546875 -8.328125 L 6.40625 -34.328125 L 6.375 -40.03125 L 6.375 -41.125 C 6.363281 -42.394531 5.957031 -43.578125 5.15625 -44.671875 C 4.351562 -45.765625 3.382812 -46.410156 2.25 -46.609375 L 19.328125 -49.203125 L 19.640625 -49.203125 C 20.765625 -49.210938 21.328125 -48.65625 21.328125 -47.53125 L 21.40625 -34.828125 L 21.546875 -8.421875 Z M 13.796875 -54.578125 C 11.671875 -54.566406 9.851562 -55.304688 8.34375 -56.796875 C 6.832031 -58.285156 6.070312 -60.097656 6.0625 -62.234375 C 6.050781 -64.367188 6.789062 -66.207031 8.28125 -67.75 C 9.769531 -69.289062 11.578125 -70.066406 13.703125 -70.078125 C 15.835938 -70.085938 17.675781 -69.332031 19.21875 -67.8125 C 20.769531 -66.289062 21.550781 -64.460938 21.5625 -62.328125 C 21.570312 -61.253906 21.378906 -60.25 20.984375 -59.3125 C 20.585938 -58.375 20.035156 -57.554688 19.328125 -56.859375 C 18.628906 -56.160156 17.800781 -55.609375 16.84375 -55.203125 C 15.882812 -54.796875 14.867188 -54.585938 13.796875 -54.578125 Z M 13.796875 -54.578125 "/></g></g></g><g fill="#f5e9dc" fill-opacity="0.4"><g transform="translate(113.419793, 203.936926)"><g><path d="M 21.5625 -5.625 C 21.570312 -4.425781 21.976562 -3.257812 22.78125 -2.125 C 23.59375 -0.988281 24.566406 -0.328125 25.703125 -0.140625 L 19.5 -0.109375 L 2.5 -0.015625 C 3.632812 -0.210938 4.597656 -0.878906 5.390625 -2.015625 C 6.179688 -3.160156 6.570312 -4.332031 6.5625 -5.53125 L 6.546875 -8.328125 L 6.421875 -30.625 L 6.328125 -49.625 L 6.3125 -51.53125 L 6.296875 -55.125 L 6.265625 -60.9375 L 6.25 -62.03125 C 6.25 -63.226562 5.84375 -64.390625 5.03125 -65.515625 C 4.226562 -66.648438 3.257812 -67.316406 2.125 -67.515625 L 19.203125 -70.109375 L 19.515625 -70.109375 C 20.046875 -70.109375 20.460938 -69.941406 20.765625 -69.609375 C 21.066406 -69.285156 21.21875 -68.859375 21.21875 -68.328125 L 21.28125 -55.625 L 21.328125 -47.125 L 21.34375 -46.421875 L 21.546875 -8.421875 Z M 47.875 -5.765625 C 47.882812 -4.566406 48.289062 -3.398438 49.09375 -2.265625 C 49.894531 -1.140625 50.863281 -0.476562 52 -0.28125 L 45.796875 -0.25 L 28.796875 -0.15625 C 29.929688 -0.363281 30.894531 -1.035156 31.6875 -2.171875 C 32.488281 -3.316406 32.882812 -4.488281 32.875 -5.6875 L 32.859375 -8.484375 L 32.71875 -35.1875 C 32.707031 -36.457031 32.960938 -37.523438 33.484375 -38.390625 C 34.015625 -39.253906 34.609375 -40.035156 35.265625 -40.734375 C 35.929688 -41.441406 36.53125 -42.144531 37.0625 -42.84375 C 37.59375 -43.550781 37.851562 -44.367188 37.84375 -45.296875 C 37.84375 -46.429688 37.207031 -47.410156 35.9375 -48.234375 C 34.664062 -49.066406 33.03125 -49.476562 31.03125 -49.46875 C 28.894531 -49.457031 26.992188 -49.179688 25.328125 -48.640625 C 23.660156 -48.097656 22.492188 -47.660156 21.828125 -47.328125 C 24.160156 -48.472656 26.804688 -49.332031 29.765625 -49.90625 C 32.734375 -50.488281 35.550781 -50.488281 38.21875 -49.90625 C 40.894531 -49.320312 43.140625 -48 44.953125 -45.9375 C 46.765625 -43.882812 47.679688 -40.796875 47.703125 -36.671875 L 47.859375 -8.5625 Z M 47.875 -5.765625 "/></g></g></g><g fill="#f5e9dc" fill-opacity="0.4"><g transform="translate(167.916861, 203.636617)"><g><path d="M 33.96875 -6.09375 C 35.90625 -6.101562 37.800781 -6.59375 39.65625 -7.5625 C 41.519531 -8.539062 43.144531 -9.90625 44.53125 -11.65625 C 42.550781 -8.039062 39.867188 -5.140625 36.484375 -2.953125 C 33.097656 -0.765625 29.367188 0.335938 25.296875 0.359375 C 22.160156 0.378906 19.207031 -0.265625 16.4375 -1.578125 C 13.664062 -2.898438 11.238281 -4.6875 9.15625 -6.9375 C 7.070312 -9.195312 5.421875 -11.859375 4.203125 -14.921875 C 2.992188 -17.984375 2.378906 -21.28125 2.359375 -24.8125 C 2.335938 -28.28125 2.914062 -31.566406 4.09375 -34.671875 C 5.28125 -37.773438 6.898438 -40.460938 8.953125 -42.734375 C 11.015625 -45.015625 13.421875 -46.828125 16.171875 -48.171875 C 18.929688 -49.523438 21.878906 -50.210938 25.015625 -50.234375 C 24.347656 -50.109375 23.566406 -49.488281 22.671875 -48.375 C 21.785156 -47.269531 20.945312 -45.816406 20.15625 -44.015625 C 19.363281 -42.210938 18.691406 -40.125 18.140625 -37.75 C 17.585938 -35.375 17.316406 -32.851562 17.328125 -30.1875 C 17.347656 -26.851562 17.796875 -23.722656 18.671875 -20.796875 C 19.554688 -17.867188 20.753906 -15.3125 22.265625 -13.125 C 23.785156 -10.9375 25.546875 -9.210938 27.546875 -7.953125 C 29.554688 -6.703125 31.695312 -6.082031 33.96875 -6.09375 Z M 32.609375 -33.1875 C 32.597656 -35.1875 32.421875 -37.132812 32.078125 -39.03125 C 31.734375 -40.925781 31.289062 -42.640625 30.75 -44.171875 C 30.21875 -45.703125 29.566406 -47 28.796875 -48.0625 C 28.023438 -49.125 27.195312 -49.847656 26.3125 -50.234375 C 28.851562 -50.054688 31.226562 -49.4375 33.4375 -48.375 C 35.644531 -47.320312 37.617188 -45.9375 39.359375 -44.21875 C 41.097656 -42.5 42.554688 -40.472656 43.734375 -38.140625 C 44.921875 -35.816406 45.785156 -33.285156 46.328125 -30.546875 L 34.828125 -30.484375 L 30.421875 -30.46875 L 29.828125 -30.46875 C 30.554688 -30.46875 31.203125 -30.738281 31.765625 -31.28125 C 32.335938 -31.820312 32.617188 -32.457031 32.609375 -33.1875 Z M 32.609375 -33.1875 "/></g></g></g><g fill="#f5e9dc" fill-opacity="0.4"><g transform="translate(216.914222, 203.366615)"><g><path d="M 21.5625 -5.625 C 21.570312 -4.425781 21.976562 -3.257812 22.78125 -2.125 C 23.59375 -0.988281 24.566406 -0.328125 25.703125 -0.140625 L 19.5 -0.109375 L 2.5 -0.015625 C 3.632812 -0.210938 4.597656 -0.878906 5.390625 -2.015625 C 6.179688 -3.160156 6.570312 -4.332031 6.5625 -5.53125 L 6.546875 -8.328125 L 6.421875 -30.625 L 6.328125 -49.625 L 6.3125 -51.53125 L 6.296875 -55.125 L 6.265625 -60.9375 L 6.25 -62.03125 C 6.25 -63.226562 5.84375 -64.390625 5.03125 -65.515625 C 4.226562 -66.648438 3.257812 -67.316406 2.125 -67.515625 L 19.203125 -70.109375 L 19.515625 -70.109375 C 20.046875 -70.109375 20.460938 -69.941406 20.765625 -69.609375 C 21.066406 -69.285156 21.21875 -68.859375 21.21875 -68.328125 L 21.28125 -55.625 L 21.328125 -47.125 L 21.34375 -46.421875 L 21.546875 -8.421875 Z M 21.5625 -5.625 "/></g></g></g><g fill="#f5e9dc" fill-opacity="0.4"><g transform="translate(245.112711, 203.211225)"><g><path d="M 19.640625 -49.203125 C 20.765625 -49.210938 21.328125 -48.65625 21.328125 -47.53125 L 21.375 -38.828125 L 21.390625 -36.53125 L 21.578125 -3.21875 L 21.609375 3.875 L 21.625 4.78125 L 21.71875 21.96875 C 21.71875 22.570312 21.519531 23.078125 21.125 23.484375 C 20.738281 23.890625 20.242188 24.09375 19.640625 24.09375 L 2.640625 24.1875 C 3.765625 23.988281 4.722656 23.332031 5.515625 22.21875 C 6.304688 21.113281 6.703125 19.929688 6.703125 18.671875 L 6.375 -41.125 C 6.363281 -42.394531 5.957031 -43.578125 5.15625 -44.671875 C 4.351562 -45.765625 3.382812 -46.410156 2.25 -46.609375 L 19.328125 -49.203125 Z M 28.53125 -49.25 C 31.269531 -49.539062 34.003906 -49.207031 36.734375 -48.25 C 39.472656 -47.289062 41.929688 -45.785156 44.109375 -43.734375 C 46.285156 -41.691406 48.066406 -39.171875 49.453125 -36.171875 C 50.835938 -33.179688 51.539062 -29.816406 51.5625 -26.078125 C 51.582031 -22.410156 51.082031 -19.15625 50.0625 -16.3125 C 49.039062 -13.476562 47.6875 -11.003906 46 -8.890625 C 44.3125 -6.785156 42.40625 -4.992188 40.28125 -3.515625 C 38.15625 -2.035156 35.992188 -0.773438 33.796875 0.265625 C 31.609375 1.304688 29.476562 2.164062 27.40625 2.84375 C 25.34375 3.519531 23.582031 4.097656 22.125 4.578125 C 23.851562 3.628906 25.597656 2.382812 27.359375 0.84375 C 29.117188 -0.695312 30.691406 -2.632812 32.078125 -4.96875 C 33.460938 -7.3125 34.597656 -10.117188 35.484375 -13.390625 C 36.367188 -16.660156 36.796875 -20.566406 36.765625 -25.109375 C 36.753906 -28.171875 36.421875 -31.082031 35.765625 -33.84375 C 35.117188 -36.601562 34.253906 -39.03125 33.171875 -41.125 C 32.085938 -43.21875 30.828125 -44.878906 29.390625 -46.109375 C 27.953125 -47.335938 26.398438 -47.945312 24.734375 -47.9375 C 23.671875 -47.925781 22.703125 -47.722656 21.828125 -47.328125 C 23.628906 -48.265625 25.863281 -48.90625 28.53125 -49.25 Z M 28.53125 -49.25 "/></g></g></g><g fill="#f5e9dc" fill-opacity="1"><g transform="translate(85.720754, 204.11573)"><g><path d="M 21.5625 -5.625 C 21.570312 -4.425781 21.976562 -3.257812 22.78125 -2.125 C 23.59375 -0.988281 24.566406 -0.328125 25.703125 -0.140625 L 19.5 -0.109375 L 2.5 -0.015625 C 3.632812 -0.210938 4.597656 -0.878906 5.390625 -2.015625 C 6.179688 -3.160156 6.570312 -4.332031 6.5625 -5.53125 L 6.546875 -8.328125 L 6.40625 -34.328125 L 6.375 -40.03125 L 6.375 -41.125 C 6.363281 -42.394531 5.957031 -43.578125 5.15625 -44.671875 C 4.351562 -45.765625 3.382812 -46.410156 2.25 -46.609375 L 19.328125 -49.203125 L 19.640625 -49.203125 C 20.765625 -49.210938 21.328125 -48.65625 21.328125 -47.53125 L 21.40625 -34.828125 L 21.546875 -8.421875 Z M 13.796875 -54.578125 C 11.671875 -54.566406 9.851562 -55.304688 8.34375 -56.796875 C 6.832031 -58.285156 6.070312 -60.097656 6.0625 -62.234375 C 6.050781 -64.367188 6.789062 -66.207031 8.28125 -67.75 C 9.769531 -69.289062 11.578125 -70.066406 13.703125 -70.078125 C 15.835938 -70.085938 17.675781 -69.332031 19.21875 -67.8125 C 20.769531 -66.289062 21.550781 -64.460938 21.5625 -62.328125 C 21.570312 -61.253906 21.378906 -60.25 20.984375 -59.3125 C 20.585938 -58.375 20.035156 -57.554688 19.328125 -56.859375 C 18.628906 -56.160156 17.800781 -55.609375 16.84375 -55.203125 C 15.882812 -54.796875 14.867188 -54.585938 13.796875 -54.578125 Z M 13.796875 -54.578125 "/></g></g></g><g fill="#f5e9dc" fill-opacity="1"><g transform="translate(113.919242, 203.960341)"><g><path d="M 21.5625 -5.625 C 21.570312 -4.425781 21.976562 -3.257812 22.78125 -2.125 C 23.59375 -0.988281 24.566406 -0.328125 25.703125 -0.140625 L 19.5 -0.109375 L 2.5 -0.015625 C 3.632812 -0.210938 4.597656 -0.878906 5.390625 -2.015625 C 6.179688 -3.160156 6.570312 -4.332031 6.5625 -5.53125 L 6.546875 -8.328125 L 6.421875 -30.625 L 6.328125 -49.625 L 6.3125 -51.53125 L 6.296875 -55.125 L 6.265625 -60.9375 L 6.25 -62.03125 C 6.25 -63.226562 5.84375 -64.390625 5.03125 -65.515625 C 4.226562 -66.648438 3.257812 -67.316406 2.125 -67.515625 L 19.203125 -70.109375 L 19.515625 -70.109375 C 20.046875 -70.109375 20.460938 -69.941406 20.765625 -69.609375 C 21.066406 -69.285156 21.21875 -68.859375 21.21875 -68.328125 L 21.28125 -55.625 L 21.328125 -47.125 L 21.34375 -46.421875 L 21.546875 -8.421875 Z M 47.875 -5.765625 C 47.882812 -4.566406 48.289062 -3.398438 49.09375 -2.265625 C 49.894531 -1.140625 50.863281 -0.476562 52 -0.28125 L 45.796875 -0.25 L 28.796875 -0.15625 C 29.929688 -0.363281 30.894531 -1.035156 31.6875 -2.171875 C 32.488281 -3.316406 32.882812 -4.488281 32.875 -5.6875 L 32.859375 -8.484375 L 32.71875 -35.1875 C 32.707031 -36.457031 32.960938 -37.523438 33.484375 -38.390625 C 34.015625 -39.253906 34.609375 -40.035156 35.265625 -40.734375 C 35.929688 -41.441406 36.53125 -42.144531 37.0625 -42.84375 C 37.59375 -43.550781 37.851562 -44.367188 37.84375 -45.296875 C 37.84375 -46.429688 37.207031 -47.410156 35.9375 -48.234375 C 34.664062 -49.066406 33.03125 -49.476562 31.03125 -49.46875 C 28.894531 -49.457031 26.992188 -49.179688 25.328125 -48.640625 C 23.660156 -48.097656 22.492188 -47.660156 21.828125 -47.328125 C 24.160156 -48.472656 26.804688 -49.332031 29.765625 -49.90625 C 32.734375 -50.488281 35.550781 -50.488281 38.21875 -49.90625 C 40.894531 -49.320312 43.140625 -48 44.953125 -45.9375 C 46.765625 -43.882812 47.679688 -40.796875 47.703125 -36.671875 L 47.859375 -8.5625 Z M 47.875 -5.765625 "/></g></g></g><g fill="#f5e9dc" fill-opacity="1"><g transform="translate(168.41631, 203.660032)"><g><path d="M 33.96875 -6.09375 C 35.90625 -6.101562 37.800781 -6.59375 39.65625 -7.5625 C 41.519531 -8.539062 43.144531 -9.90625 44.53125 -11.65625 C 42.550781 -8.039062 39.867188 -5.140625 36.484375 -2.953125 C 33.097656 -0.765625 29.367188 0.335938 25.296875 0.359375 C 22.160156 0.378906 19.207031 -0.265625 16.4375 -1.578125 C 13.664062 -2.898438 11.238281 -4.6875 9.15625 -6.9375 C 7.070312 -9.195312 5.421875 -11.859375 4.203125 -14.921875 C 2.992188 -17.984375 2.378906 -21.28125 2.359375 -24.8125 C 2.335938 -28.28125 2.914062 -31.566406 4.09375 -34.671875 C 5.28125 -37.773438 6.898438 -40.460938 8.953125 -42.734375 C 11.015625 -45.015625 13.421875 -46.828125 16.171875 -48.171875 C 18.929688 -49.523438 21.878906 -50.210938 25.015625 -50.234375 C 24.347656 -50.109375 23.566406 -49.488281 22.671875 -48.375 C 21.785156 -47.269531 20.945312 -45.816406 20.15625 -44.015625 C 19.363281 -42.210938 18.691406 -40.125 18.140625 -37.75 C 17.585938 -35.375 17.316406 -32.851562 17.328125 -30.1875 C 17.347656 -26.851562 17.796875 -23.722656 18.671875 -20.796875 C 19.554688 -17.867188 20.753906 -15.3125 22.265625 -13.125 C 23.785156 -10.9375 25.546875 -9.210938 27.546875 -7.953125 C 29.554688 -6.703125 31.695312 -6.082031 33.96875 -6.09375 Z M 32.609375 -33.1875 C 32.597656 -35.1875 32.421875 -37.132812 32.078125 -39.03125 C 31.734375 -40.925781 31.289062 -42.640625 30.75 -44.171875 C 30.21875 -45.703125 29.566406 -47 28.796875 -48.0625 C 28.023438 -49.125 27.195312 -49.847656 26.3125 -50.234375 C 28.851562 -50.054688 31.226562 -49.4375 33.4375 -48.375 C 35.644531 -47.320312 37.617188 -45.9375 39.359375 -44.21875 C 41.097656 -42.5 42.554688 -40.472656 43.734375 -38.140625 C 44.921875 -35.816406 45.785156 -33.285156 46.328125 -30.546875 L 34.828125 -30.484375 L 30.421875 -30.46875 L 29.828125 -30.46875 C 30.554688 -30.46875 31.203125 -30.738281 31.765625 -31.28125 C 32.335938 -31.820312 32.617188 -32.457031 32.609375 -33.1875 Z M 32.609375 -33.1875 "/></g></g></g><g fill="#f5e9dc" fill-opacity="1"><g transform="translate(217.413672, 203.390029)"><g><path d="M 21.5625 -5.625 C 21.570312 -4.425781 21.976562 -3.257812 22.78125 -2.125 C 23.59375 -0.988281 24.566406 -0.328125 25.703125 -0.140625 L 19.5 -0.109375 L 2.5 -0.015625 C 3.632812 -0.210938 4.597656 -0.878906 5.390625 -2.015625 C 6.179688 -3.160156 6.570312 -4.332031 6.5625 -5.53125 L 6.546875 -8.328125 L 6.421875 -30.625 L 6.328125 -49.625 L 6.3125 -51.53125 L 6.296875 -55.125 L 6.265625 -60.9375 L 6.25 -62.03125 C 6.25 -63.226562 5.84375 -64.390625 5.03125 -65.515625 C 4.226562 -66.648438 3.257812 -67.316406 2.125 -67.515625 L 19.203125 -70.109375 L 19.515625 -70.109375 C 20.046875 -70.109375 20.460938 -69.941406 20.765625 -69.609375 C 21.066406 -69.285156 21.21875 -68.859375 21.21875 -68.328125 L 21.28125 -55.625 L 21.328125 -47.125 L 21.34375 -46.421875 L 21.546875 -8.421875 Z M 21.5625 -5.625 "/></g></g></g><g fill="#f5e9dc" fill-opacity="1"><g transform="translate(245.61216, 203.23464)"><g><path d="M 19.640625 -49.203125 C 20.765625 -49.210938 21.328125 -48.65625 21.328125 -47.53125 L 21.375 -38.828125 L 21.390625 -36.53125 L 21.578125 -3.21875 L 21.609375 3.875 L 21.625 4.78125 L 21.71875 21.96875 C 21.71875 22.570312 21.519531 23.078125 21.125 23.484375 C 20.738281 23.890625 20.242188 24.09375 19.640625 24.09375 L 2.640625 24.1875 C 3.765625 23.988281 4.722656 23.332031 5.515625 22.21875 C 6.304688 21.113281 6.703125 19.929688 6.703125 18.671875 L 6.375 -41.125 C 6.363281 -42.394531 5.957031 -43.578125 5.15625 -44.671875 C 4.351562 -45.765625 3.382812 -46.410156 2.25 -46.609375 L 19.328125 -49.203125 Z M 28.53125 -49.25 C 31.269531 -49.539062 34.003906 -49.207031 36.734375 -48.25 C 39.472656 -47.289062 41.929688 -45.785156 44.109375 -43.734375 C 46.285156 -41.691406 48.066406 -39.171875 49.453125 -36.171875 C 50.835938 -33.179688 51.539062 -29.816406 51.5625 -26.078125 C 51.582031 -22.410156 51.082031 -19.15625 50.0625 -16.3125 C 49.039062 -13.476562 47.6875 -11.003906 46 -8.890625 C 44.3125 -6.785156 42.40625 -4.992188 40.28125 -3.515625 C 38.15625 -2.035156 35.992188 -0.773438 33.796875 0.265625 C 31.609375 1.304688 29.476562 2.164062 27.40625 2.84375 C 25.34375 3.519531 23.582031 4.097656 22.125 4.578125 C 23.851562 3.628906 25.597656 2.382812 27.359375 0.84375 C 29.117188 -0.695312 30.691406 -2.632812 32.078125 -4.96875 C 33.460938 -7.3125 34.597656 -10.117188 35.484375 -13.390625 C 36.367188 -16.660156 36.796875 -20.566406 36.765625 -25.109375 C 36.753906 -28.171875 36.421875 -31.082031 35.765625 -33.84375 C 35.117188 -36.601562 34.253906 -39.03125 33.171875 -41.125 C 32.085938 -43.21875 30.828125 -44.878906 29.390625 -46.109375 C 27.953125 -47.335938 26.398438 -47.945312 24.734375 -47.9375 C 23.671875 -47.925781 22.703125 -47.722656 21.828125 -47.328125 C 23.628906 -48.265625 25.863281 -48.90625 28.53125 -49.25 Z M 28.53125 -49.25 "/></g></g></g><g mask="url(#dd95e7327c)"><g transform="matrix(1, 0, 0, 1, 168, 205)"><g clip-path="url(#7980cd4871)"><g fill="#f5e9dc" fill-opacity="0.4"><g transform="translate(1.314602, 19.440268)"><g><path d="M 4.976562 0.125 C 7.722656 0.125 9.460938 -1.230469 9.460938 -3.417969 C 9.460938 -7.871094 2.605469 -7.328125 2.605469 -10.65625 C 2.605469 -12.046875 3.671875 -13.023438 5.355469 -13.023438 C 7.019531 -13.023438 8.140625 -11.613281 8.773438 -10.257812 L 8.863281 -10.257812 L 9.296875 -12.121094 C 8.304688 -12.789062 7 -13.277344 5.425781 -13.277344 C 2.914062 -13.277344 1.121094 -11.976562 1.121094 -9.878906 C 1.121094 -5.714844 7.886719 -6.242188 7.886719 -2.570312 C 7.886719 -1.050781 6.800781 -0.125 4.976562 -0.125 C 3.292969 -0.125 1.9375 -1.339844 1.101562 -2.859375 L 1.03125 -2.859375 L 0.613281 -1.03125 C 1.644531 -0.269531 3.21875 0.125 4.976562 0.125 Z M 4.976562 0.125 "/></g></g></g><g fill="#f5e9dc" fill-opacity="0.4"><g transform="translate(14.299755, 19.440268)"><g><path d="M 7.199219 0.125 C 10.800781 0.125 13.585938 -2.75 13.585938 -6.640625 C 13.585938 -10.472656 10.800781 -13.277344 7.199219 -13.277344 C 3.617188 -13.277344 0.8125 -10.4375 0.8125 -6.601562 C 0.8125 -2.714844 3.617188 0.125 7.199219 0.125 Z M 7.199219 -0.125 C 4.777344 -0.125 2.875 -2.261719 2.875 -6.621094 C 2.875 -10.910156 4.777344 -13.023438 7.199219 -13.023438 C 9.640625 -13.023438 11.542969 -10.910156 11.542969 -6.621094 C 11.523438 -2.261719 9.640625 -0.125 7.199219 -0.125 Z M 7.199219 -0.125 "/></g></g></g><g fill="#f5e9dc" fill-opacity="0.4"><g transform="translate(31.407607, 19.440268)"><g><path d="M 6.621094 0.125 C 8.863281 0.125 10.292969 -1.101562 11.125 -2.839844 L 11.054688 -2.949219 C 10.183594 -1.683594 8.808594 -1.121094 7.507812 -1.121094 C 4.683594 -1.121094 2.914062 -3.601562 2.894531 -7.089844 C 2.894531 -10.472656 4.503906 -13.007812 6.910156 -13.007812 C 8.609375 -13.007812 9.625 -11.304688 10.203125 -9.984375 L 10.292969 -9.984375 L 11.199219 -11.8125 C 10.328125 -12.5 8.972656 -13.277344 7.109375 -13.277344 C 3.382812 -13.277344 0.851562 -10.457031 0.851562 -6.566406 C 0.851562 -2.550781 3.382812 0.125 6.621094 0.125 Z M 6.621094 0.125 "/></g></g></g><g fill="#f5e9dc" fill-opacity="0.4"><g transform="translate(45.803152, 19.440268)"><g><path d="M 4.269531 0 L 4.269531 -0.109375 C 3.816406 -0.289062 3.5625 -0.851562 3.5625 -1.394531 L 3.5625 -11.777344 C 3.5625 -12.320312 3.816406 -12.878906 4.269531 -13.0625 L 4.269531 -13.167969 L 1.050781 -13.167969 L 1.050781 -13.0625 C 1.5 -12.878906 1.738281 -12.320312 1.738281 -11.777344 L 1.738281 -1.394531 C 1.738281 -0.851562 1.5 -0.289062 1.050781 -0.109375 L 1.050781 0 Z M 4.269531 0 "/></g></g></g><g fill="#f5e9dc" fill-opacity="0.4"><g transform="translate(53.797662, 19.440268)"><g><path d="M 5.878906 -13.167969 L 5.644531 -13.167969 L 0.941406 -1.59375 C 0.707031 -1.050781 0.578125 -0.507812 -0.21875 -0.144531 L -0.21875 0 L 2.1875 0 L 2.1875 -0.144531 C 1.539062 -0.488281 1.101562 -1.03125 1.445312 -1.882812 L 2.316406 -4.035156 L 7.832031 -4.035156 L 8.808594 -1.644531 C 9.152344 -0.8125 8.753906 -0.417969 8.175781 -0.109375 L 8.175781 0 L 11.8125 0 L 11.8125 -0.109375 C 11.144531 -0.523438 11 -1.03125 10.761719 -1.574219 Z M 5.066406 -10.871094 L 7.707031 -4.339844 L 2.441406 -4.339844 Z M 5.066406 -10.871094 "/></g></g></g><g fill="#f5e9dc" fill-opacity="0.4"><g transform="translate(68.120881, 19.440268)"><g><path d="M 9.75 -2.441406 C 9.296875 -1.355469 8.339844 -0.234375 6.386719 -0.234375 L 3.5625 -0.234375 L 3.5625 -11.777344 C 3.5625 -12.320312 3.800781 -12.878906 4.25 -13.0625 L 4.25 -13.167969 L 1.050781 -13.167969 L 1.050781 -13.0625 C 1.5 -12.878906 1.738281 -12.320312 1.738281 -11.777344 L 1.738281 -1.394531 C 1.738281 -0.851562 1.5 -0.289062 1.050781 -0.109375 L 1.050781 0 L 9.390625 0 L 9.839844 -2.441406 Z M 9.75 -2.441406 "/></g></g></g><g fill="#f5e9dc" fill-opacity="1"><g transform="translate(1.204387, 19.414824)"><g><path d="M 4.976562 0.125 C 7.722656 0.125 9.460938 -1.230469 9.460938 -3.417969 C 9.460938 -7.871094 2.605469 -7.328125 2.605469 -10.65625 C 2.605469 -12.046875 3.671875 -13.023438 5.355469 -13.023438 C 7.019531 -13.023438 8.140625 -11.613281 8.773438 -10.257812 L 8.863281 -10.257812 L 9.296875 -12.121094 C 8.304688 -12.789062 7 -13.277344 5.425781 -13.277344 C 2.914062 -13.277344 1.121094 -11.976562 1.121094 -9.878906 C 1.121094 -5.714844 7.886719 -6.242188 7.886719 -2.570312 C 7.886719 -1.050781 6.800781 -0.125 4.976562 -0.125 C 3.292969 -0.125 1.9375 -1.339844 1.101562 -2.859375 L 1.03125 -2.859375 L 0.613281 -1.03125 C 1.644531 -0.269531 3.21875 0.125 4.976562 0.125 Z M 4.976562 0.125 "/></g></g></g><g fill="#f5e9dc" fill-opacity="1"><g transform="translate(14.18954, 19.414824)"><g><path d="M 7.199219 0.125 C 10.800781 0.125 13.585938 -2.75 13.585938 -6.640625 C 13.585938 -10.472656 10.800781 -13.277344 7.199219 -13.277344 C 3.617188 -13.277344 0.8125 -10.4375 0.8125 -6.601562 C 0.8125 -2.714844 3.617188 0.125 7.199219 0.125 Z M 7.199219 -0.125 C 4.777344 -0.125 2.875 -2.261719 2.875 -6.621094 C 2.875 -10.910156 4.777344 -13.023438 7.199219 -13.023438 C 9.640625 -13.023438 11.542969 -10.910156 11.542969 -6.621094 C 11.523438 -2.261719 9.640625 -0.125 7.199219 -0.125 Z M 7.199219 -0.125 "/></g></g></g><g fill="#f5e9dc" fill-opacity="1"><g transform="translate(31.297392, 19.414824)"><g><path d="M 6.621094 0.125 C 8.863281 0.125 10.292969 -1.101562 11.125 -2.839844 L 11.054688 -2.949219 C 10.183594 -1.683594 8.808594 -1.121094 7.507812 -1.121094 C 4.683594 -1.121094 2.914062 -3.601562 2.894531 -7.089844 C 2.894531 -10.472656 4.503906 -13.007812 6.910156 -13.007812 C 8.609375 -13.007812 9.625 -11.304688 10.203125 -9.984375 L 10.292969 -9.984375 L 11.199219 -11.8125 C 10.328125 -12.5 8.972656 -13.277344 7.109375 -13.277344 C 3.382812 -13.277344 0.851562 -10.457031 0.851562 -6.566406 C 0.851562 -2.550781 3.382812 0.125 6.621094 0.125 Z M 6.621094 0.125 "/></g></g></g><g fill="#f5e9dc" fill-opacity="1"><g transform="translate(45.692937, 19.414824)"><g><path d="M 4.269531 0 L 4.269531 -0.109375 C 3.816406 -0.289062 3.5625 -0.851562 3.5625 -1.394531 L 3.5625 -11.777344 C 3.5625 -12.320312 3.816406 -12.878906 4.269531 -13.0625 L 4.269531 -13.167969 L 1.050781 -13.167969 L 1.050781 -13.0625 C 1.5 -12.878906 1.738281 -12.320312 1.738281 -11.777344 L 1.738281 -1.394531 C 1.738281 -0.851562 1.5 -0.289062 1.050781 -0.109375 L 1.050781 0 Z M 4.269531 0 "/></g></g></g><g fill="#f5e9dc" fill-opacity="1"><g transform="translate(53.687447, 19.414824)"><g><path d="M 5.878906 -13.167969 L 5.644531 -13.167969 L 0.941406 -1.59375 C 0.707031 -1.050781 0.578125 -0.507812 -0.21875 -0.144531 L -0.21875 0 L 2.1875 0 L 2.1875 -0.144531 C 1.539062 -0.488281 1.101562 -1.03125 1.445312 -1.882812 L 2.316406 -4.035156 L 7.832031 -4.035156 L 8.808594 -1.644531 C 9.152344 -0.8125 8.753906 -0.417969 8.175781 -0.109375 L 8.175781 0 L 11.8125 0 L 11.8125 -0.109375 C 11.144531 -0.523438 11 -1.03125 10.761719 -1.574219 Z M 5.066406 -10.871094 L 7.707031 -4.339844 L 2.441406 -4.339844 Z M 5.066406 -10.871094 "/></g></g></g><g fill="#f5e9dc" fill-opacity="1"><g transform="translate(68.010665, 19.414824)"><g><path d="M 9.75 -2.441406 C 9.296875 -1.355469 8.339844 -0.234375 6.386719 -0.234375 L 3.5625 -0.234375 L 3.5625 -11.777344 C 3.5625 -12.320312 3.800781 -12.878906 4.25 -13.0625 L 4.25 -13.167969 L 1.050781 -13.167969 L 1.050781 -13.0625 C 1.5 -12.878906 1.738281 -12.320312 1.738281 -11.777344 L 1.738281 -1.394531 C 1.738281 -0.851562 1.5 -0.289062 1.050781 -0.109375 L 1.050781 0 L 9.390625 0 L 9.839844 -2.441406 Z M 9.75 -2.441406 "/></g></g></g></g></g></g></svg>
